# xmcd
#
# Track frame offsets: 
#        150
#        21075
#        40535
#        58115
#        79952
#        99359
#        124887
#        144539
#        169017
#        187152
#        210252
#        225508
#        252868
#        281365
#        318971
#
# Disc length: 4704 seconds
#
# Revision: 5
# Processed by: cddbd v1.5.2PL0 Copyright (c) Steve Scherf et al.
# Submitted via: ExactAudioCopyFreeDBPlugin 1.0
#
DISCID=c5125e0f
DTITLE=Celia Cruz - Exitos Eternos
DYEAR=2003
DGENRE=Latin
TTITLE0=La Vida Es Un Carnaval
TTITLE1=La Negra Tiene Tumbao
TTITLE2=Que Le Den Candela
TTITLE3=Sazon
TTITLE4=Usted Abuso
TTITLE5=La Guagua
TTITLE6=Oye Como Va
TTITLE7=La Voz De La Experiencia ft. La India
TTITLE8=Mi Vida Es Cantar
TTITLE9=Cucala (Live)
TTITLE10=Tu Voz ft. Vicente Fernandez
TTITLE11=Quimbara (Live)
TTITLE12=Guantanamera (Live)
TTITLE13=Por Si Acaso No Regreso
TTITLE14=Que Le Den Candela (Video)
EXTD=YEAR: 2003
EXTT0=
EXTT1=
EXTT2=
EXTT3=
EXTT4=
EXTT5=
EXTT6=
EXTT7=
EXTT8=
EXTT9=
EXTT10=
EXTT11=
EXTT12=
EXTT13=
EXTT14=
PLAYORDER=
